<?xml version="1.0" encoding="UTF-8"?>
<svg xmlns="http://www.w3.org/2000/svg" xmlns:xlink="http://www.w3.org/1999/xlink" viewBox="0 0 64 64" width="64px" height="64px">
<g id="surface35128858">
<path style=" stroke:none;fill-rule:nonzero;fill:rgb(100%,100%,100%);fill-opacity:1;" d="M 32 6.398438 C 17.863281 6.398438 6.398438 17.863281 6.398438 32 C 6.398438 44.835938 15.855469 55.433594 28.171875 57.285156 L 28.171875 38.785156 L 21.839844 38.785156 L 21.839844 32.054688 L 28.171875 32.054688 L 28.171875 27.578125 C 28.171875 20.164062 31.785156 16.910156 37.945312 16.910156 C 40.894531 16.910156 42.457031 17.128906 43.195312 17.230469 L 43.195312 23.101562 L 38.992188 23.101562 C 36.378906 23.101562 35.464844 25.582031 35.464844 28.378906 L 35.464844 32.054688 L 43.128906 32.054688 L 42.089844 38.785156 L 35.464844 38.785156 L 35.464844 57.335938 C 47.960938 55.644531 57.601562 44.960938 57.601562 32 C 57.601562 17.863281 46.136719 6.398438 32 6.398438 Z M 32 6.398438 "/>
</g>
</svg>
