<?xml version="1.0" encoding="UTF-8"?>
<svg xmlns="http://www.w3.org/2000/svg" xmlns:xlink="http://www.w3.org/1999/xlink" viewBox="0 0 64 64" width="64px" height="64px">
<g id="surface35126010">
<path style=" stroke:none;fill-rule:nonzero;fill:rgb(38.039216%,58.823532%,89.411765%);fill-opacity:1;" d="M 32 6.398438 C 17.863281 6.398438 6.398438 17.863281 6.398438 32 C 6.398438 43.996094 14.660156 54.03125 25.796875 56.8125 C 25.675781 56.464844 25.601562 56.0625 25.601562 55.566406 L 25.601562 51.191406 C 24.5625 51.191406 22.820312 51.191406 22.382812 51.191406 C 20.632812 51.191406 19.074219 50.4375 18.320312 49.039062 C 17.480469 47.484375 17.335938 45.105469 15.257812 43.648438 C 14.640625 43.164062 15.109375 42.613281 15.820312 42.6875 C 17.132812 43.058594 18.222656 43.960938 19.246094 45.296875 C 20.265625 46.632812 20.746094 46.933594 22.648438 46.933594 C 23.574219 46.933594 24.957031 46.882812 26.257812 46.675781 C 26.957031 44.898438 28.167969 43.265625 29.644531 42.492188 C 21.121094 41.613281 17.050781 37.375 17.050781 31.617188 C 17.050781 29.136719 18.109375 26.738281 19.902344 24.71875 C 19.3125 22.714844 18.574219 18.625 20.128906 17.066406 C 23.964844 17.066406 26.28125 19.554688 26.839844 20.226562 C 28.75 19.570312 30.851562 19.199219 33.054688 19.199219 C 35.265625 19.199219 37.375 19.570312 39.289062 20.230469 C 39.839844 19.5625 42.160156 17.066406 46.003906 17.066406 C 47.566406 18.625 46.816406 22.734375 46.222656 24.734375 C 48.007812 26.75 49.054688 29.140625 49.054688 31.617188 C 49.054688 37.371094 44.992188 41.609375 36.480469 42.488281 C 38.824219 43.710938 40.535156 47.148438 40.535156 49.734375 L 40.535156 55.566406 C 40.535156 55.789062 40.484375 55.949219 40.457031 56.136719 C 50.433594 52.640625 57.601562 43.171875 57.601562 32 C 57.601562 17.863281 46.136719 6.398438 32 6.398438 Z M 32 6.398438 "/>
</g>
</svg>
