<?xml version="1.0" encoding="UTF-8"?>
<svg xmlns="http://www.w3.org/2000/svg" xmlns:xlink="http://www.w3.org/1999/xlink" viewBox="0 0 64 64" width="64px" height="64px">
<g id="surface35787606">
<path style=" stroke:none;fill-rule:nonzero;fill:rgb(100%,100%,100%);fill-opacity:1;" d="M 21.328125 6.398438 C 13.097656 6.398438 6.398438 13.101562 6.398438 21.335938 L 6.398438 42.671875 C 6.398438 50.902344 13.101562 57.601562 21.335938 57.601562 L 42.671875 57.601562 C 50.902344 57.601562 57.601562 50.898438 57.601562 42.664062 L 57.601562 21.328125 C 57.601562 13.097656 50.898438 6.398438 42.664062 6.398438 Z M 46.933594 14.933594 C 48.109375 14.933594 49.066406 15.890625 49.066406 17.066406 C 49.066406 18.246094 48.109375 19.199219 46.933594 19.199219 C 45.753906 19.199219 44.800781 18.246094 44.800781 17.066406 C 44.800781 15.890625 45.753906 14.933594 46.933594 14.933594 Z M 32 19.199219 C 39.058594 19.199219 44.800781 24.941406 44.800781 32 C 44.800781 39.058594 39.058594 44.800781 32 44.800781 C 24.941406 44.800781 19.199219 39.058594 19.199219 32 C 19.199219 24.941406 24.941406 19.199219 32 19.199219 Z M 32 23.464844 C 27.289062 23.464844 23.464844 27.289062 23.464844 32 C 23.464844 36.710938 27.289062 40.535156 32 40.535156 C 36.710938 40.535156 40.535156 36.710938 40.535156 32 C 40.535156 27.289062 36.710938 23.464844 32 23.464844 Z M 32 23.464844 "/>
</g>
</svg>
