<?xml version="1.0" encoding="UTF-8"?>
<svg xmlns="http://www.w3.org/2000/svg" xmlns:xlink="http://www.w3.org/1999/xlink" viewBox="0 0 64 64" width="64px" height="64px">
<g id="surface35124071">
<path style=" stroke:none;fill-rule:nonzero;fill:rgb(38.039216%,58.823532%,89.411765%);fill-opacity:1;" d="M 59.734375 14.800781 C 57.691406 15.707031 55.5 16.316406 53.195312 16.589844 C 55.546875 15.183594 57.351562 12.953125 58.199219 10.296875 C 56.003906 11.597656 53.566406 12.546875 50.972656 13.058594 C 48.894531 10.847656 45.9375 9.464844 42.667969 9.464844 C 36.382812 9.464844 31.289062 14.558594 31.289062 20.84375 C 31.289062 21.734375 31.390625 22.605469 31.582031 23.433594 C 22.125 22.960938 13.742188 18.429688 8.125 11.542969 C 7.148438 13.222656 6.585938 15.179688 6.585938 17.265625 C 6.585938 21.214844 8.59375 24.699219 11.648438 26.738281 C 9.785156 26.675781 8.027344 26.164062 6.492188 25.3125 C 6.492188 25.363281 6.492188 25.40625 6.492188 25.457031 C 6.492188 30.972656 10.414062 35.570312 15.621094 36.613281 C 14.667969 36.875 13.660156 37.011719 12.621094 37.011719 C 11.890625 37.011719 11.175781 36.941406 10.484375 36.8125 C 11.933594 41.332031 16.132812 44.621094 21.113281 44.714844 C 17.21875 47.765625 12.3125 49.585938 6.980469 49.585938 C 6.0625 49.585938 5.15625 49.535156 4.265625 49.425781 C 9.300781 52.65625 15.28125 54.539062 21.707031 54.539062 C 42.640625 54.539062 54.085938 37.199219 54.085938 22.160156 C 54.085938 21.667969 54.074219 21.175781 54.050781 20.6875 C 56.277344 19.082031 58.207031 17.078125 59.734375 14.800781 Z M 59.734375 14.800781 "/>
</g>
</svg>
